# xmcd CD database file
#
# Track frame offsets:
#	150
#	18059
#	38285
#	57946
#	77713
#	93212
#	112274
#	130431
#	145548
#	161142
#	179422
#	203301
#	219646
#	238706
#	254865
#	270846
#	288795
#
# Disc length: 4098 seconds
#
# Revision: 2
# Processed by: cddbd v1.4b41PL1 Copyright (c) Steve Scherf et al.
# Submitted via: Feurio! 1.52 - http://www.feurio.com
#
DISCID=e5100011
DTITLE=Various Artist - SANREMO 2001
DYEAR=1900
DGENRE=
TTITLE0=Akex Britti - Sono contento
TTITLE1=Fabio Concato - Ciao Ninin
TTITLE2=Elisa - Luce (tramonti a nord est )
TTITLE3=Sonique - Sky
TTITLE4=Carlotta - Promessa
TTITLE5=Jenny B - Anche tu
TTITLE6=Kelly Joyce - Vivre la vie
TTITLE7=Velvet - Nascosto dietro un vetro
TTITLE8=Francesco Renga - Raccontami...
TTITLE9=Shivaree - Goodnight moon
TTITLE10=Roberto Angelini - Il sig. Domani
TTITLE11=Ronan Keating - The way you make feel me
TTITLE12=Quintorigo - Bentivoglio Angelina
TTITLE13=Francesco e Giada - Turuturu
TTITLE14=Gazosa - Stai con me (forever)
TTITLE15=Moby - Porcelain
TTITLE16=Placebo - Slave to the wage
EXTD=
EXTT0=
EXTT1=
EXTT2=
EXTT3=
EXTT4=
EXTT5=
EXTT6=
EXTT7=
EXTT8=
EXTT9=
EXTT10=
EXTT11=
EXTT12=
EXTT13=
EXTT14=
EXTT15=
EXTT16=
PLAYORDER=
